<svg width="299" height="22" viewBox="0 0 299 22" xmlns="http://www.w3.org/2000/svg"><title>B-LogoS 1</title><path d="M0 21V5.25h5.2V0h5.2v5.25h5.2V0h5.2v5.25H26V21H0zm5.2-10.5v5.25h5.2V10.5H5.2zm10.4 0v5.25h5.2V10.5h-5.2zM47 21.596V1.404h8.875c4.26 0 6.893 1.846 6.893 4.961 0 2.135-1.154 3.289-2.692 4.212 1.774.721 3.55 2.221 3.55 4.961 0 3.808-3.403 6.058-7.455 6.058H47zm4.792-8.77v4.905h4.23c2.071 0 3.018-.952 3.018-2.423s-.917-2.481-3.017-2.481h-4.23zm0-7.788V9.02h3.994c1.627 0 2.544-.807 2.544-2.019 0-1.212-.917-1.962-2.544-1.962h-3.994zM82.81 17.27v4.327H67.633V1.404h4.793v15.865h10.383zm22.9-5.769c0 5.856-4.556 10.5-10.887 10.5-6.33 0-10.886-4.644-10.886-10.5S88.492 1 94.822 1s10.887 4.644 10.887 10.5zm-10.887 6.173c3.343 0 6.094-2.308 6.094-6.173s-2.751-6.173-6.094-6.173c-3.343 0-6.094 2.308-6.094 6.173s2.751 6.173 6.094 6.173zm30.493-3.836l3.876 2.711c-2.396 3.664-5.088 5.452-9.555 5.452-6.272 0-10.768-4.212-10.768-10.5S113.57 1 119.754 1c4.556 0 7.869 2.25 9.26 5.308l-3.994 2.711c-1.125-2.336-2.959-3.692-5.414-3.692-3.225 0-5.946 2.365-5.946 6.173 0 3.692 2.692 6.173 5.976 6.173 2.662 0 4.319-1.385 5.68-3.836zm25.219-12.433l-7.544 7.615 7.78 12.577h-5.443l-5.68-9.23-1.834 1.874v7.356h-4.792V1.404h4.792v6.923c.592-.664 1.184-1.298 1.184-1.298l5.561-5.625h5.976zm9.178 12.317v7.875h-4.792V1.404H170.6V5.5h-10.887v4.24h10.029v3.981h-10.029zm11.693 7.875l8.431-20.192h4.497l8.43 20.192h-5.206l-1.863-4.875h-7.219l-1.863 4.875h-5.207zm9.822-12.144l-1.243 3.288h4.2l-1.242-3.288s-.473-1.183-.858-2.394a39.763 39.763 0 0 1-.857 2.394zm29.994 4.385l3.875 2.711C212.7 20.212 210.008 22 205.541 22c-6.272 0-10.768-4.212-10.768-10.5S199.476 1 205.659 1c4.556 0 7.87 2.25 9.26 5.308l-3.994 2.711c-1.124-2.336-2.958-3.692-5.414-3.692-3.224 0-5.946 2.365-5.946 6.173 0 3.692 2.692 6.173 5.976 6.173 2.662 0 4.319-1.385 5.68-3.836zm6.068-8.337V1.404h17.04V5.5h-6.124v16.096h-4.792V5.5h-6.124zm40.246 6c0 5.856-4.555 10.5-10.886 10.5-6.33 0-10.886-4.644-10.886-10.5S240.318 1 246.649 1c6.33 0 10.886 4.644 10.886 10.5zm-10.886 6.173c3.343 0 6.094-2.308 6.094-6.173s-2.751-6.173-6.094-6.173c-3.343 0-6.094 2.308-6.094 6.173s2.751 6.173 6.094 6.173zm27.073 3.923l-4.615-7.961h-2.573v7.961h-4.793V1.404h9.023c4.94 0 7.75 2.163 7.75 5.942 0 3.087-1.804 4.76-4.496 5.885l4.852 8.365h-5.148zm-7.188-16.384v4.615h4.703c1.834 0 2.633-.952 2.633-2.308 0-1.356-.799-2.307-2.633-2.307h-4.703zm25.603 8.711v7.673h-4.793v-7.673l-6.892-12.52h5.384l3.313 6.434s.325.807.592 1.5c.266-.693.591-1.5.591-1.5l3.314-6.433H299l-6.863 12.52z" fill="#263238" fill-rule="evenodd"/></svg>